<?xml version="1.0" encoding="UTF-8"?>
<svg width="546px" height="329px" viewBox="0 0 546 329" version="1.1" xmlns="http://www.w3.org/2000/svg" xmlns:xlink="http://www.w3.org/1999/xlink">
    <title>logo</title>
    <path id="logo" stroke="none" stroke-width="1" fill-rule="evenodd" d="M45.1423408,183.584499 C128.824341,96.8284989 233.801341,42.9844989 369.238341,48.8704989 C405.947341,21.7434989 438.366341,7.95849895 473.149341,2.21249895 C504.847341,-3.02350105 532.060341,0.170498946 545.223341,21.1944989 C546.222341,23.6994989 543.551341,24.6964989 542.862341,23.6204989 C522.274341,-10.3725011 441.839341,3.37649895 384.554341,53.4004989 C448.140341,78.2524989 428.904341,157.474499 326.658341,171.220499 C366.071341,173.527499 396.201341,191.658499 394.091341,225.857499 C388.776341,312.008499 277.009341,332.585499 229.801341,315.402499 C206.578341,304.234499 205.130341,279.172499 228.402341,260.622499 C243.660341,251.399499 256.917341,248.924499 267.510341,258.127499 C274.837341,264.493499 274.453341,277.872499 267.893341,280.988499 C242.461341,293.067499 235.600341,298.035499 242.333341,308.091499 C244.721341,311.657499 252.924341,316.057499 269.458341,314.610499 C307.344341,311.295499 346.578341,282.802499 358.871341,227.398499 C368.894341,182.223499 332.871341,169.187499 280.109341,178.399499 C165.927341,322.418499 104.887341,329.166499 64.0993408,329.007499 C-14.5096592,328.702499 -20.8016592,259.971499 45.1423408,183.584499 Z M375.717341,60.6354989 C384.803341,67.7344989 391.259341,76.2104989 391.225341,90.1554989 C391.175341,111.005499 383.433341,129.102499 367.597341,145.212499 C349.232341,163.894499 319.827341,170.934499 283.089341,170.267499 C313.965341,133.723499 336.802341,94.6214989 375.717341,60.6354989 Z M359.831341,55.7924989 C242.435341,138.869499 183.506341,268.637499 119.461341,308.359499 C57.4403408,341.333499 21.7783408,309.948499 25.7143408,276.988499 C31.1893408,231.140499 51.4393408,183.406499 121.323341,131.519499 C193.413341,84.7794989 271.109341,45.8214989 359.831341,55.7924989 Z"></path>
</svg>